# xmcd
#
# Track frame offsets: 
#        150
#        10410
#        20892
#        35532
#        53900
#        66315
#        80715
#        96887
#        110705
#        129667
#        140672
#        158275
#        171192
#
# Disc length: 2468 seconds
#
# Revision: 3
# Processed by: cddbd v1.5.2PL0 Copyright (c) Steve Scherf et al.
# Submitted via: ExactAudioCopyFreeDBPlugin 1.0
#
DISCID=b709a20d
DTITLE=Aretha Franklin - Aretha in Paris
DYEAR=1968
DGENRE=Soul
TTITLE0=(I Can't Get No) Satisfaction
TTITLE1=Don't Let Me Lose This Dream
TTITLE2=Soul Serenade
TTITLE3=Night Life
TTITLE4=Baby, I Love You
TTITLE5=Groovin'
TTITLE6=(You Make Me Feel Like) A Natural Woman
TTITLE7=Come Back Baby
TTITLE8=Dr. Feelgood (Love is a Serious Business)
TTITLE9=Since You've Been Gone (Sweet Sweet Baby)
TTITLE10=I Never Loved a Man (The Way I Love You)
TTITLE11=Chain of Fools
TTITLE12=Respect
EXTD=
EXTT0=
EXTT1=
EXTT2=
EXTT3=
EXTT4=
EXTT5=
EXTT6=
EXTT7=
EXTT8=
EXTT9=
EXTT10=
EXTT11=
EXTT12=
PLAYORDER=
